<svg width="164" height="29" viewBox="0 0 164 29" fill="none" xmlns="http://www.w3.org/2000/svg">
<path d="M14 0.5L17.1432 10.1738H27.3148L19.0858 16.1525L22.229 25.8262L14 19.8475L5.77101 25.8262L8.9142 16.1525L0.685208 10.1738H10.8568L14 0.5Z" fill="#FACC15"/>
<path d="M48 0.5L51.1432 10.1738H61.3148L53.0858 16.1525L56.229 25.8262L48 19.8475L39.771 25.8262L42.9142 16.1525L34.6852 10.1738H44.8568L48 0.5Z" fill="#FACC15"/>
<path d="M82 0.5L85.1432 10.1738H95.3148L87.0858 16.1525L90.229 25.8262L82 19.8475L73.771 25.8262L76.9142 16.1525L68.6852 10.1738H78.8568L82 0.5Z" fill="#FACC15"/>
<path d="M116 0.5L119.143 10.1738H129.315L121.086 16.1525L124.229 25.8262L116 19.8475L107.771 25.8262L110.914 16.1525L102.685 10.1738H112.857L116 0.5Z" fill="#FACC15"/>
<path d="M150 0.5L153.143 10.1738H163.315L155.086 16.1525L158.229 25.8262L150 19.8475L141.771 25.8262L144.914 16.1525L136.685 10.1738H146.857L150 0.5Z" fill="#FACC15"/>
</svg>
