<svg width="37" height="32" viewBox="0 0 37 32" fill="none" xmlns="http://www.w3.org/2000/svg">
<g clip-path="url(#clip0_892_139)">
<path d="M35.293 19.4739C35.293 21.912 33.5688 24.0362 31.1368 24.3913C29.4679 24.6351 27.782 24.8225 26.0809 24.9536V32.0301L19.8228 25.8191C19.3984 25.4006 18.8287 25.159 18.2306 25.144C15.3113 25.0638 12.3993 24.8125 9.50981 24.3913C7.07781 24.0362 5.3536 21.9136 5.3536 19.4724V10.3021C5.3536 7.86099 7.07781 5.73833 9.50981 5.38328C13.0903 4.8617 16.7044 4.60043 20.3233 4.60157C23.9959 4.60157 27.607 4.86823 31.1368 5.38328C33.5688 5.73833 35.293 7.86252 35.293 10.3021V19.4724V19.4739Z" fill="#048FE2"/>
<path d="M0.535358 14.8724C0.535358 17.3105 2.25956 19.4347 4.69156 19.7897C6.36049 20.0335 8.04631 20.221 9.74748 20.352V27.4286L16.0056 21.2175C16.43 20.799 16.9996 20.5575 17.5977 20.5425C20.5171 20.4623 23.4291 20.2109 26.3186 19.7897C28.7506 19.4347 30.4748 17.312 30.4748 14.8709V5.70057C30.4748 3.25943 28.7506 1.13677 26.3186 0.781718C22.738 0.260139 19.1239 -0.00112797 15.5051 3.66023e-06C11.8325 3.66023e-06 8.22134 0.26667 4.69156 0.781718C2.25956 1.13677 0.535358 3.26096 0.535358 5.70057V14.8709V14.8724Z" fill="#8EC4F3"/>
</g>
<defs>
<clipPath id="clip0_892_139">
<rect width="36.8485" height="32" fill="white" transform="translate(0.15152)"/>
</clipPath>
</defs>
</svg>
